<?xml version="1.0" encoding="UTF-8" standalone="no"?>
<!-- Generator: Adobe Illustrator 22.1.0, SVG Export Plug-In . SVG Version: 6.00 Build 0)  -->

<svg
   version="1.1"
   id="Layer_1"
   x="0px"
   y="0px"
   viewBox="0 0 199.99999 200"
   xml:space="preserve"
   sodipodi:docname="klara.svg"
   inkscape:version="1.1.2 (b8e25be8, 2022-02-05)"
   width="200"
   height="200"
   inkscape:export-filename="/Users/pieter/Desktop/klara/klara.png"
   inkscape:export-xdpi="491.51999"
   inkscape:export-ydpi="491.51999"
   xmlns:inkscape="http://www.inkscape.org/namespaces/inkscape"
   xmlns:sodipodi="http://sodipodi.sourceforge.net/DTD/sodipodi-0.dtd"
   xmlns="http://www.w3.org/2000/svg"
   xmlns:svg="http://www.w3.org/2000/svg"><defs
   id="defs841" /><sodipodi:namedview
   id="namedview839"
   pagecolor="#ffffff"
   bordercolor="#666666"
   borderopacity="1.0"
   inkscape:pageshadow="2"
   inkscape:pageopacity="0.0"
   inkscape:pagecheckerboard="0"
   showgrid="false"
   inkscape:zoom="3.3027102"
   inkscape:cx="12.86822"
   inkscape:cy="108.85"
   inkscape:window-width="2560"
   inkscape:window-height="1317"
   inkscape:window-x="0"
   inkscape:window-y="25"
   inkscape:window-maximized="1"
   inkscape:current-layer="layer2" />
<style
   type="text/css"
   id="style824">
	.st0{fill:#FFFFFF;}
</style>






<g
   inkscape:groupmode="layer"
   id="layer1"
   inkscape:label="background"><rect
     style="fill:#f4e3d7"
     id="rect944"
     width="150"
     height="150"
     x="24.525312"
     y="23.616966"
     rx="30"
     ry="30" /></g><g
   inkscape:groupmode="layer"
   id="layer2"
   inkscape:label="foreground"><g
     id="g920"
     transform="matrix(0.54864703,0,0,0.54864703,42.795646,38.859485)"><path
       d="M 0.9,161.8 V 0.9 H 102.5 V 29.3 L 112.6,19.2 C 122.5,8 137,1 153.1,1 c 29.9,0 54.1,24.2 54.1,54.1 0,14.5 -5.7,27.8 -15.1,37.5 v 0 l -16.3,16.3 16.3,16.3 v 0 c 9.3,9.7 15.1,22.9 15.1,37.5 0,29.9 -24.2,54.1 -54.1,54.1 -16.1,0 -30.5,-7 -40.4,-18.2 l -10.4,-10.4 c -9.3,16.6 -27,27.7 -47.3,27.7 -29.9,0 -54.1,-24.2 -54.1,-54.1 0,-0.2 0,-0.3 0,-0.5 v 0"
       id="path826"
       style="fill:#e9afaf" /><path
       class="st0"
       d="m 43.9,125.6 c 0,0.6 -0.1,1.1 -0.1,1.1 l -4.2,0.7 v 36.2 l 4.3,0.7 c 0,0 0.1,0.6 0.1,1.2 0,0.4 -0.1,1.1 -0.1,1.1 0,0 -6.1,-0.1 -8.6,-0.1 -2.5,0 -9.3,0.1 -9.3,0.1 0,0 -0.1,-0.7 -0.1,-1.1 0,-0.6 0.1,-1.1 0.1,-1.1 l 5,-0.7 v -36.3 l -5,-0.7 c 0,0 -0.1,-0.6 -0.1,-1.1 0,-0.4 0.1,-1.1 0.1,-1.1 0,0 6.8,0.1 9.3,0.1 2.9,0 8.6,-0.1 8.6,-0.1 0,0 0,0.6 0,1.1 z m 25.5,38.9 c 0,0 0.1,0.6 0.1,1.1 0,0.4 -0.1,1.1 -0.1,1.1 0,0 -8,-0.1 -10.5,-0.1 -2.5,0 -6.9,0.1 -6.9,0.1 0,0 -0.1,-0.7 -0.1,-1.1 0,-0.7 0.1,-1.2 0.1,-1.2 l 3.2,-0.4 -14.9,-18 17,-18.1 -4.8,-1.3 c 0,0 -0.1,-0.6 -0.1,-1 0,-0.4 0.1,-1.1 0.1,-1.1 0,0 4.8,0.1 7.4,0.1 2.5,0 7.9,-0.1 7.9,-0.1 0,0 0.1,0.7 0.1,1.1 0,0.6 -0.1,1.1 -0.1,1.1 l -6.5,1.4 -13.5,14 17.9,21.4 z"
       id="path828" /><path
       class="st0"
       d="m 84.1,164 c 1.1,0.2 4.5,0.5 5.3,0.6 0,0 0.1,0.4 0.1,1 0,0.4 -0.1,1.1 -0.1,1.1 0,0 -6.8,-0.1 -9.3,-0.1 -2.5,0 -8,0.1 -8,0.1 0,0 -0.1,-0.7 -0.1,-1.1 0,-0.6 0.1,-1 0.1,-1 l 4.1,-0.6 v -40.5 l -4.8,-1.7 c 0,0 -0.1,-0.4 -0.1,-0.8 0,-0.6 0.1,-1 0.1,-1 3.7,-0.5 13,-2 13,-2 0,0 -0.2,9.1 -0.2,13.3 V 164 Z"
       id="path830" /><path
       class="st0"
       d="m 116.1,144.3 c 0,5.2 -0.3,9.8 -0.3,15.6 0,4.3 1.8,3.9 5.1,2.7 l 0.6,1.6 c -2.4,2 -5,3 -7.9,3 -2.9,0 -5.1,-1.4 -5.3,-4.6 -1.1,2.1 -5,4.7 -8.6,4.7 -5,0 -9,-2.9 -9,-7.6 0,-5.8 6,-9.1 16.1,-9.3 h 1.1 c 0.1,-1.1 0.1,-5.1 0.1,-5.8 0,-5.9 -1.9,-7.6 -5.3,-7.6 -1.4,0 -3.1,0.3 -4.4,1 0.8,2.9 0.8,6.2 0.1,8.8 -3.8,0 -5.8,-2 -5.8,-5 0,-4.4 7.1,-7.4 13,-7.4 7.4,0 10.5,3.6 10.5,9.9 z m -8.9,8.1 c -5.7,0.1 -7.9,2 -7.9,6.3 0,2.5 1.4,4.8 4,4.8 1.7,0 3.6,-1.1 4.7,-3 0,-3.5 0,-4.6 0.1,-8.1 z"
       id="path832" /><path
       class="st0"
       d="m 135.1,142.5 v 21.3 l 6.5,0.8 c 0,0 0.1,0.4 0.1,1 0,0.4 -0.1,1.1 -0.1,1.1 0,0 -8.1,-0.1 -10.5,-0.1 -2.5,0 -8,0.1 -8,0.1 0,0 -0.1,-0.7 -0.1,-1.1 0,-0.6 0.1,-1 0.1,-1 l 4,-0.6 v -24.3 l -4.8,-1.6 c 0,0 -0.1,-0.4 -0.1,-0.9 0,-0.6 0.1,-1 0.1,-1 3.7,-0.5 12.7,-2 12.7,-2 v 5.3 c 1.5,-3 5.3,-5.3 7.6,-5.3 4.3,0 6.2,2.5 6.2,6.2 0,2.7 -2.4,5.5 -6.7,5.5 -0.6,-3.2 -0.3,-7.4 0.1,-9.2 -2.7,0.6 -6.1,3.5 -7.1,5.8 z"
       id="path834" /><path
       class="st0"
       d="m 174.3,144.3 c 0,5.2 -0.3,9.8 -0.3,15.6 0,4.3 1.8,3.9 5.1,2.7 l 0.6,1.6 c -2.4,2 -5,3 -7.9,3 -2.9,0 -5.1,-1.4 -5.3,-4.6 -1.1,2.1 -5,4.7 -8.6,4.7 -5,0 -9,-2.9 -9,-7.6 0,-5.8 6,-9.1 16.1,-9.3 h 1.1 c 0.1,-1.1 0.1,-5.1 0.1,-5.8 0,-5.9 -1.9,-7.6 -5.3,-7.6 -1.4,0 -3.1,0.3 -4.4,1 0.8,2.9 0.8,6.2 0.1,8.8 -3.8,0 -5.8,-2 -5.8,-5 0,-4.4 7.1,-7.4 13,-7.4 7.3,0 10.5,3.6 10.5,9.9 z m -9,8.1 c -5.7,0.1 -7.9,2 -7.9,6.3 0,2.5 1.4,4.8 4,4.8 1.7,0 3.6,-1.1 4.7,-3 0,-3.5 0,-4.6 0.1,-8.1 z"
       id="path836" /></g></g></svg>
